<?xml version="1.0" standalone="no"?>
<!DOCTYPE svg PUBLIC "-//W3C//DTD SVG 20010904//EN"
 "http://www.w3.org/TR/2001/REC-SVG-20010904/DTD/svg10.dtd">
<svg version="1.0" xmlns="http://www.w3.org/2000/svg"
 width="186.000000pt" height="200.000000pt" viewBox="0 0 186.000000 200.000000"
 preserveAspectRatio="xMidYMid meet">
<metadata>
Created by potrace 1.15, written by Peter Selinger 2001-2017
</metadata>
<g transform="translate(0.000000,200.000000) scale(0.100000,-0.100000)"
fill="#000000" stroke="none">
<path d="M1317 1254 c-4 -4 -7 -13 -7 -21 0 -10 39 -13 196 -13 181 0 195 1
192 18 -3 15 -21 17 -189 20 -102 1 -188 -1 -192 -4z"/>
<path d="M1123 1095 c-87 -24 -154 -64 -224 -134 -77 -77 -113 -146 -136 -257
-47 -231 92 -471 323 -555 86 -32 246 -32 327 0 135 53 249 164 298 288 33 86
38 230 10 320 -64 214 -258 355 -484 352 -34 0 -86 -7 -114 -14z m288 -55
c111 -43 218 -149 259 -257 32 -81 38 -204 15 -289 -45 -168 -191 -297 -371
-326 -187 -31 -383 72 -469 246 -58 117 -66 231 -25 352 48 139 165 248 311
289 75 21 207 14 280 -15z"/>
<path d="M1146 1029 c-108 -25 -235 -130 -281 -231 -119 -260 37 -552 321
-601 178 -31 361 68 445 238 32 66 34 75 34 180 0 99 -3 116 -28 169 -89 191
-291 292 -491 245z m269 -68 c75 -37 146 -110 183 -189 24 -50 27 -69 27 -157
0 -93 -2 -105 -33 -167 -114 -232 -412 -287 -602 -111 -69 63 -106 132 -121
222 -30 191 98 383 288 431 21 5 73 8 117 6 62 -3 91 -11 141 -35z"/>
<path d="M1237 884 c-11 -11 -8 -282 2 -288 12 -8 161 73 168 91 11 28 -9 27
-66 -5 -32 -18 -61 -32 -64 -32 -4 0 -8 53 -9 117 -3 108 -11 137 -31 117z"/>
</g>
</svg>
